<svg width="48" height="48" viewBox="0 0 48 48" xmlns="http://www.w3.org/2000/svg">
    <g fill="none" fill-rule="evenodd">
        <rect fill="#F0F2F6" x="2" y="2" width="44" height="44" rx="9"/>
        <path d="M25.617 15.658 24 17.323l-1.617-1.665a5.383 5.383 0 0 0-7.773 0c-2.147 2.21-2.147 5.795 0 8.005L24 33.091l9.39-9.428c2.147-2.21 2.147-5.794 0-8.005a5.383 5.383 0 0 0-7.773 0" fill="#FFF"/>
        <path d="M25.617 15.658 24 17.323l-1.617-1.665a5.383 5.383 0 0 0-7.773 0c-2.147 2.21-2.147 5.795 0 8.005L24 33.091l9.39-9.428c2.147-2.21 2.147-5.794 0-8.005a5.383 5.383 0 0 0-7.773 0z" stroke="#CAD1DB" stroke-width="1.5" stroke-linecap="round" stroke-linejoin="round"/>
        <path fill="#FFF" d="M18.74 22.827h3.168l1.21-1.98 1.406 4.313 1.287-2.333h4.017"/>
        <path stroke="#CAD1DB" stroke-width="1.5" stroke-linecap="round" stroke-linejoin="round" d="M18.74 22.827h3.168l1.21-1.98 1.406 4.313 1.287-2.333h4.017"/>
    </g>
</svg>
