<svg width="48" height="48" viewBox="0 0 48 48" xmlns="http://www.w3.org/2000/svg">
    <g fill="none" fill-rule="evenodd">
        <rect fill="#F0F2F6" x="2" y="2" width="44" height="44" rx="9"/>
        <path d="m13.478 36.49-.307-3.455c-1.425-19.783 6.528-20.913 6.528-20.913C24.976 10.764 35 21.219 35 21.219s-3.635 12.938-21.522 15.27" fill="#FFF"/>
        <path d="m13.478 36.49-.307-3.455c-1.425-19.783 6.528-20.913 6.528-20.913C24.976 10.764 35 21.219 35 21.219" fill="#FFF"/>
        <path d="m13.478 36.49-.307-3.455c-1.425-19.783 6.528-20.913 6.528-20.913C24.976 10.764 35 21.219 35 21.219" stroke="#CAD1DB" stroke-width="1.5" stroke-linecap="round"/>
        <path d="M20.287 16.082s-4.74.848-3.499 17.492c0 0 7.962-.824 10.496-5.83 0 0-2.333-11.662-6.997-11.662z" fill="#CAD1DB"/>
        <path d="M27.284 27.743s-2.333-11.661-6.997-11.661c0 0-4.74.848-3.499 17.492 0 0 7.212-1.324 10.496-5.83z" stroke="#CAD1DB" stroke-width="1.5" stroke-linecap="round" stroke-linejoin="round"/>
    </g>
</svg>
