<svg width="48" height="48" viewBox="0 0 48 48" xmlns="http://www.w3.org/2000/svg">
    <g fill="none" fill-rule="evenodd">
        <rect fill="#F0F2F6" x="2" y="2" width="44" height="44" rx="9"/>
        <path d="M30.661 13.902a3.117 3.117 0 0 0-4.386 4.428c.023.023.052.037.075.06l-7.98 8.054c-.022-.024-.037-.052-.06-.075a3.117 3.117 0 1 0-4.386 4.427 3.097 3.097 0 0 0 2.52.871c-.086.9.203 1.828.894 2.513a3.116 3.116 0 1 0 4.387-4.427c-.023-.023-.05-.037-.075-.06l7.98-8.054c.022.024.037.052.06.076a3.117 3.117 0 0 0 4.387-4.428 3.1 3.1 0 0 0-2.521-.871 3.095 3.095 0 0 0-.895-2.514" fill="#FFF"/>
        <path d="M30.661 13.902a3.117 3.117 0 0 0-4.386 4.428c.023.023.052.037.075.06l-7.98 8.054c-.022-.024-.037-.052-.06-.075a3.117 3.117 0 1 0-4.386 4.427 3.097 3.097 0 0 0 2.52.871c-.086.9.203 1.828.894 2.513a3.116 3.116 0 1 0 4.387-4.427c-.023-.023-.05-.037-.075-.06l7.98-8.054c.022.024.037.052.06.076a3.117 3.117 0 0 0 4.387-4.428 3.1 3.1 0 0 0-2.521-.871 3.095 3.095 0 0 0-.895-2.514z" stroke="#CAD1DB" stroke-width="1.5" stroke-linecap="round" stroke-linejoin="round"/>
    </g>
</svg>
