<svg width="48" height="48" viewBox="0 0 48 48" xmlns="http://www.w3.org/2000/svg">
    <g fill="none" fill-rule="evenodd">
        <path d="M24 5c-4.079 3.995-9.814 5.684-16 6.393v15.69c0 3.503 1.82 6.81 4.925 8.792.666.425 1.354.821 2.06 1.19C18.27 38.765 24 41.495 24 41.495s5.73-2.73 9.014-4.432a26.961 26.961 0 0 0 2.061-1.189C38.18 33.893 40 30.585 40 27.084V11.393C33.814 10.683 28.079 8.995 24 5z" stroke="#FFF" stroke-width="2" fill="#FFF" stroke-linecap="round" stroke-linejoin="round"/>
        <path d="M24 32.232a2.617 2.617 0 0 1-2.618-2.618V27.06a.945.945 0 0 0-.945-.945h-2.555a2.618 2.618 0 0 1 0-5.237h2.555a.944.944 0 0 0 .945-.945v-2.555a2.618 2.618 0 0 1 5.236 0v2.555c0 .524.423.945.945.945h2.555a2.619 2.619 0 0 1 0 5.237h-2.555a.945.945 0 0 0-.945.945v2.555A2.617 2.617 0 0 1 24 32.232" fill="#5CD3A6"/>
    </g>
</svg>
