<svg width="48" height="48" viewBox="0 0 48 48" xmlns="http://www.w3.org/2000/svg" xmlns:xlink="http://www.w3.org/1999/xlink">
    <defs>
        <path d="M8.581.098C4.324.684.84 4.059.141 8.298c-1.083 6.569 4.243 12.209 10.722 11.665 4.672-.39 8.54-4.139 9.071-8.797.121-1.069-.04-2.394-.235-3.382-.118-.604-.564-.736-1.176-.671l-4.994.534 3.285-3.283a1.186 1.186 0 0 0-.03-1.704A9.951 9.951 0 0 0 10 0c-.466 0-.94.032-1.419.098" id="bu6yfux4ta"/>
    </defs>
    <g fill="none" fill-rule="evenodd">
        <path d="M0 0h48v48H0z"/>
        <rect fill="#F0F2F6" x="2" y="2" width="44" height="44" rx="9"/>
        <path d="m27.53 21.647 3.284-3.284a1.185 1.185 0 0 0-.03-1.703 9.98 9.98 0 0 0-8.203-2.562c-4.256.587-7.741 3.961-8.44 8.2-1.082 6.569 4.243 12.209 10.722 11.666 4.672-.392 8.54-4.139 9.07-8.798.123-1.07.074-2.11-.12-3.098a1.187 1.187 0 0 0-1.29-.955l-4.993.534z" fill="#CAD1DB"/>
        <path d="m27.53 21.647 3.284-3.284a1.185 1.185 0 0 0-.03-1.703 9.98 9.98 0 0 0-8.203-2.562c-4.256.587-7.741 3.961-8.44 8.2-1.082 6.569 4.243 12.209 10.722 11.666 4.672-.392 8.54-4.139 9.07-8.798.123-1.07.074-2.11-.12-3.098a1.187 1.187 0 0 0-1.29-.955l-4.993.534z"/>
        <g transform="translate(14 14)">
            <mask id="j4ik6thc1b" fill="#fff">
                <use xlink:href="#bu6yfux4ta"/>
            </mask>
            <path d="M8.838 18.655c-2.102 0-4.144-.884-5.672-2.505C1.19 14.054.409 11.118 1.129 8.488a2.488 2.488 0 0 1 4.8 1.313c-.262.953.076 2.105.857 2.935.42.446 1.312 1.155 2.582.887a2.488 2.488 0 1 1 1.029 4.868 7.48 7.48 0 0 1-1.559.164" fill="#FFF" mask="url(#j4ik6thc1b)"/>
        </g>
        <g>
            <path d="M22.7 17.783a2 2 0 1 1-4 .001 2 2 0 0 1 4 0" fill="#FFF"/>
            <path d="m27.53 21.647 3.284-3.284a1.185 1.185 0 0 0-.03-1.703 9.98 9.98 0 0 0-8.203-2.562c-4.256.587-7.741 3.961-8.44 8.2-1.082 6.569 4.243 12.209 10.722 11.666 4.672-.392 8.54-4.139 9.07-8.798.123-1.07.074-2.11-.12-3.098a1.187 1.187 0 0 0-1.29-.955l-4.993.534z" stroke="#CAD1DB" stroke-width="1.5" stroke-linejoin="round"/>
        </g>
    </g>
</svg>
