<svg width="40" height="40" viewBox="0 0 40 40" xmlns="http://www.w3.org/2000/svg">
    <g fill="none" fill-rule="evenodd">
        <g transform="translate(2 2)">
            <circle fill="#DBF7F8" cx="18" cy="18" r="18"/>
            <path opacity=".1" d="M6 6h24v24H6z"/>
            <path d="M27.711 17.996c.431 5.26-4.393 8.995-9.813 8.995-5.42 0-10.047-3.738-9.813-8.995.22-4.964 4.394-9.022 9.813-8.996a9.845 9.845 0 0 1 9.813 8.996" fill="#F4F3E9"/>
            <path d="M27.711 17.996c.431 5.26-4.393 8.995-9.813 8.995-5.42 0-10.047-3.738-9.813-8.995.22-4.964 4.394-9.022 9.813-8.996a9.845 9.845 0 0 1 9.813 8.996z" stroke="#000" stroke-width=".75"/>
            <path d="M12.14 11.196c-3.777 2.43-3.934 8.085-3.934 8.085 0 .7-.701.467-.701.467-.701-.467-.468-3.038-.468-3.038.234-3.738 1.87-5.607 1.87-5.607 2.102-2.57 5.607-1.402 5.607-1.402" fill="#F4F3E9"/>
            <path d="M12.14 11.196c-3.777 2.43-3.934 8.085-3.934 8.085 0 .7-.701.467-.701.467-.701-.467-.468-3.038-.468-3.038.234-3.738 1.87-5.607 1.87-5.607 2.102-2.57 5.607-1.402 5.607-1.402" stroke="#000" stroke-width=".75" stroke-linecap="round" stroke-linejoin="round"/>
            <path d="M8.286 18.382s-.548-3.54 1.321-6.11c0 0 1.207-1.73 2.804-1.403 0 0-3.343 1.942-4.125 7.513" fill="#CECBB6"/>
            <path d="M8.286 18.382s-.548-3.54 1.321-6.11c0 0 1.207-1.73 2.804-1.403 0 0-3.343 1.942-4.125 7.513z" stroke="#CECBB6" stroke-width=".8" stroke-linecap="round" stroke-linejoin="round"/>
            <path d="M23.86 11.43c3.777 2.43 3.934 8.084 3.934 8.084 0 .701.701.468.701.468.701-.468.468-3.038.468-3.038-.234-3.738-1.87-5.607-1.87-5.607C25.224 9 21.72 9.935 21.72 9.935" fill="#F4F3E9"/>
            <path d="M23.86 11.43c3.777 2.43 3.934 8.084 3.934 8.084 0 .701.701.468.701.468.701-.468.468-3.038.468-3.038-.234-3.738-1.87-5.607-1.87-5.607C25.224 9 21.72 9.935 21.72 9.935" stroke="#000" stroke-width=".75" stroke-linecap="round" stroke-linejoin="round"/>
            <path d="M27.714 18.616s.548-3.541-1.321-6.111c0 0-.936-1.496-2.533-1.168 0 0 3.072 1.707 3.854 7.279" fill="#CECBB6"/>
            <path d="M27.714 18.616s.548-3.541-1.321-6.111c0 0-.936-1.496-2.533-1.168 0 0 3.072 1.707 3.854 7.279z" stroke="#CECBB6" stroke-width=".8"/>
            <path d="M23.923 11.053c2.168 1.68 3.565 4.216 3.788 6.943.431 5.26-4.393 8.995-9.813 8.995-5.42 0-10.047-3.738-9.813-8.995.132-2.967 1.676-5.61 4.054-7.251" fill="#F4F3E9"/>
            <path d="M23.923 11.053c2.168 1.68 3.565 4.216 3.788 6.943.431 5.26-4.393 8.995-9.813 8.995-5.42 0-10.047-3.738-9.813-8.995.132-2.967 1.676-5.61 4.054-7.251" stroke="#000" stroke-width=".75" stroke-linecap="round"/>
            <path d="M20.216 19.085c-2.243-1.365-3.927 0-3.927 0-.607.43-1.074 1.048-1.074 1.831 0 1.157.946 2.103 2.103 2.103h1.869a2.109 2.109 0 0 0 2.103-2.103c0-.783-.467-1.402-1.074-1.83" fill="#E8E5D4"/>
            <path d="M19.187 18.813c0 .387-.47.701-1.051.701s-1.052-.314-1.052-.7c0-.388.47-.702 1.052-.702.58 0 1.05.314 1.05.701M15.332 18.23a.7.7 0 1 1-1.402 0 .7.7 0 0 1 1.402 0M22.341 18.23a.7.7 0 1 1-1.402 0 .7.7 0 0 1 1.402 0" fill="#000"/>
        </g>
        <path opacity=".1" d="M0 0h40v40H0z"/>
    </g>
</svg>
