<svg width="96" height="96" viewBox="0 0 96 96" xmlns="http://www.w3.org/2000/svg">
    <g fill="none" fill-rule="evenodd">
        <path d="M34.602 19.573a1.784 1.784 0 1 1-3.569 0 1.784 1.784 0 0 1 3.569 0M40.718 19.828a1.784 1.784 0 1 1-3.569 0 1.784 1.784 0 0 1 3.569 0M47.832 23.375c0 1.21-1.262 2.192-2.82 2.192-1.555 0-2.817-.981-2.817-2.192 0-1.211 1.262-1.566 2.818-1.566 1.557 0 2.819.355 2.819 1.566M48.108 63.404a1.986 1.986 0 0 1-1.986-1.986V59.48a.717.717 0 0 0-.716-.717h-1.938a1.986 1.986 0 1 1 0-3.971h1.938a.717.717 0 0 0 .716-.717v-1.938a1.986 1.986 0 0 1 3.972 0v1.938c0 .396.32.717.716.717h1.938a1.985 1.985 0 0 1 0 3.97H50.81a.716.716 0 0 0-.716.718v1.937a1.986 1.986 0 0 1-1.986 1.986" fill="#FFF"/>
        <path d="M38.996 47.105a17.344 17.344 0 0 0 5.3-2.154l3.557-2.188s2.674 1.63 3.556 2.188c2.081 1.317 4.026 2.388 6.127 3.017" stroke="#FFF" stroke-width="2" stroke-linecap="round" stroke-linejoin="round"/>
        <path d="m20.841 17.28-2.664 9.368a5.475 5.475 0 0 1-10.538-.431l-.493-2.097a5.475 5.475 0 0 1 2.091-5.67l6.2-4.546c4.008-2.94 8.864-4.23 13.818-3.834 5.927.472 10.477 3.94 12.7 6.154l3.405 3.405c.3.299.661.528 1.06.67l1.065.38a2.859 2.859 0 0 1 1.897 2.692c0 2.685.016 7.442-4.518 8.316l-2.97.61c-4.712.966-8.566 5.692-8.566 10.5v13.577a13.435 13.435 0 0 0 9.055 12.7l4.664 1.609a3.252 3.252 0 0 0 2.121 0l4.664-1.608a13.436 13.436 0 0 0 9.056-12.701V45.03l-2.68-2.267c-4.428-3.917-5.604-9.731-2.47-14.744l4.764-7.623 2.803-5.606 4.842 5.606h7.135l5.096-5.606 1.153 2.177a45.237 45.237 0 0 1 5.238 19.858" stroke="#FFF" stroke-width="2" stroke-linecap="round" stroke-linejoin="round"/>
        <path d="M72.44 29.315a1.784 1.784 0 1 1-3.569 0 1.784 1.784 0 0 1 3.57 0M63.776 29.315a1.784 1.784 0 1 1-3.569 0 1.784 1.784 0 0 1 3.569 0M67.868 31.773a1.72 1.72 0 0 1-3.44.043c-.012-.95.76-.87 1.71-.882.95-.011 1.718-.111 1.73.839" fill="#FFF"/>
        <path d="M69.097 35.593a2.203 2.203 0 0 1-2.566-3.237M65.865 32.785s-.243 1.624-1.412 2.777M75.568 32.205l2.901.145M75.423 36.049l2.462.766M55.452 32.485l-2.149.155M55.769 35.832l-1.886.798" stroke="#FFF" stroke-width="2" stroke-linecap="round" stroke-linejoin="round"/>
        <path d="M49.5 37c-5.48 5.363-13.188 7.631-21.5 8.583V66.65c0 4.701 2.445 9.141 6.618 11.803.895.57 1.819 1.103 2.77 1.596C41.8 82.334 49.5 86 49.5 86s7.7-3.666 12.113-5.95a36.237 36.237 0 0 0 2.769-1.597C68.555 75.79 71 71.35 71 66.65V45.583c-8.312-.952-16.02-3.22-21.5-8.583z" stroke="#FFF" stroke-width="2" fill="#FF9B49" stroke-linecap="round" stroke-linejoin="round"/>
        <path d="M50 72a3.295 3.295 0 0 1-3.296-3.296v-3.217a1.19 1.19 0 0 0-1.19-1.19h-3.218a3.297 3.297 0 0 1 0-6.594h3.218c.657 0 1.19-.53 1.19-1.19v-3.217a3.297 3.297 0 0 1 6.592 0v3.217c0 .66.533 1.19 1.19 1.19h3.218a3.297 3.297 0 0 1 0 6.594h-3.218a1.19 1.19 0 0 0-1.19 1.19v3.217A3.295 3.295 0 0 1 50 72" fill="#FFF"/>
    </g>
</svg>
